<?xml version="1.0" encoding="UTF-8" standalone="no"?>
<!DOCTYPE svg PUBLIC "-//W3C//DTD SVG 1.1//EN" "http://www.w3.org/Graphics/SVG/1.1/DTD/svg11.dtd">
<svg width="100%" height="100%" viewBox="0 0 98 56" version="1.1" xmlns="http://www.w3.org/2000/svg" xmlns:xlink="http://www.w3.org/1999/xlink" xml:space="preserve" xmlns:serif="http://www.serif.com/" style="fill-rule:evenodd;clip-rule:evenodd;stroke-linejoin:round;stroke-miterlimit:2;">
    <path d="M64.166,56L50.901,56L50.901,0L64.166,0L64.166,56ZM46.164,28.068C46.164,40.815 35.828,51.13 23.094,51.13C10.359,51.13 0.006,40.798 0.006,28.068C0.006,15.338 10.342,5.005 23.076,5.005C35.811,5.005 46.164,15.32 46.164,28.068ZM30.056,28.073C30.056,28.071 30.056,28.064 30.056,28.062C30.056,24.243 26.914,21.101 23.095,21.101L23.075,21.101C19.256,21.101 16.114,24.243 16.114,28.062C16.114,28.064 16.114,28.071 16.114,28.073C16.114,31.892 19.256,35.034 23.075,35.034C23.078,35.034 23.091,35.034 23.095,35.034C26.914,35.034 30.056,31.892 30.056,28.073ZM97.836,14.068L89.02,14.068L83.844,19.237L78.668,14.067L69.85,14.067L69.85,23.027L74.957,28.127L69.85,33.228L69.85,42.068L78.805,42.068L83.86,37.019L88.915,42.068L97.87,42.068L97.87,33.228L92.763,28.128L97.87,23.028L97.87,14.068L97.835,14.068L97.836,14.068Z" style="fill:rgb(66,229,219);"/>
</svg>
